<?xml version="1.0" encoding="utf-8"?>
<!-- Generator: Adobe Illustrator 25.3.1, SVG Export Plug-In . SVG Version: 6.00 Build 0)  -->
<svg version="1.1" id="Layer_1" xmlns="http://www.w3.org/2000/svg" xmlns:xlink="http://www.w3.org/1999/xlink" x="0px" y="0px"
	 viewBox="0 0 800 800" style="enable-background:new 0 0 800 800;" xml:space="preserve">
<style type="text/css">
	.st0{fill:#EACC1A;}
	.st1{fill:#111A23;}
</style>
<rect x="-2" y="-1.17" class="st0" width="807" height="806.33"/>
<g>
	<path class="st1" d="M313.54,592.65h-1.42v-16.34h3.68c0.63,0,1.24,0.03,1.85,0.09c0.6,0.06,1.17,0.15,1.71,0.29
		c0.54,0.14,1.03,0.32,1.48,0.56c0.45,0.23,0.83,0.53,1.16,0.88c0.32,0.35,0.58,0.78,0.76,1.27c0.18,0.49,0.27,1.06,0.27,1.71
		c0,0.85-0.18,1.57-0.54,2.17c-0.36,0.6-0.85,1.1-1.46,1.48c-0.61,0.39-1.32,0.67-2.13,0.85c-0.81,0.18-1.66,0.27-2.55,0.27h-2.76
		L313.54,592.65z M313.61,584.6h3.27c0.67,0,1.3-0.07,1.86-0.2c0.57-0.13,1.06-0.34,1.47-0.63c0.41-0.28,0.73-0.64,0.96-1.08
		c0.23-0.43,0.35-0.95,0.35-1.55c0-0.71-0.12-1.3-0.37-1.76c-0.25-0.46-0.61-0.82-1.07-1.09c-0.46-0.27-1.01-0.45-1.65-0.56
		c-0.64-0.1-1.35-0.16-2.11-0.16h-2.69V584.6z"/>
	<path class="st1" d="M327.85,592.65h-1.47v-16.34h1.52v7.29h9.74v-7.29h1.46v16.34h-1.5v-7.78h-9.74V592.65z"/>
	<path class="st1" d="M358.77,584.46c0,1.23-0.18,2.37-0.54,3.41c-0.36,1.04-0.89,1.93-1.58,2.68c-0.69,0.75-1.53,1.33-2.52,1.74
		c-0.99,0.42-2.11,0.62-3.36,0.62c-1.23,0-2.33-0.2-3.3-0.6c-0.98-0.4-1.81-0.96-2.49-1.69c-0.68-0.73-1.2-1.62-1.57-2.65
		c-0.36-1.04-0.54-2.19-0.54-3.47c0-1.23,0.18-2.37,0.54-3.41c0.36-1.04,0.89-1.93,1.58-2.68c0.69-0.75,1.53-1.34,2.52-1.76
		c1-0.42,2.13-0.63,3.39-0.63c1.21,0,2.3,0.2,3.28,0.6c0.97,0.4,1.8,0.97,2.48,1.71c0.68,0.74,1.2,1.63,1.57,2.67
		C358.59,582.02,358.77,583.18,358.77,584.46z M344.41,584.51c0,0.99,0.14,1.92,0.41,2.79c0.27,0.86,0.68,1.62,1.22,2.26
		c0.54,0.64,1.2,1.14,2,1.52c0.79,0.37,1.71,0.56,2.75,0.56c1.05,0,1.98-0.18,2.78-0.55c0.8-0.37,1.46-0.87,1.99-1.52
		c0.53-0.65,0.93-1.41,1.2-2.29c0.27-0.88,0.4-1.84,0.4-2.87c0-0.99-0.13-1.93-0.39-2.79c-0.26-0.87-0.66-1.62-1.18-2.26
		c-0.53-0.64-1.19-1.14-1.98-1.51c-0.79-0.37-1.72-0.55-2.78-0.55c-1.05,0-1.97,0.2-2.77,0.6c-0.8,0.4-1.46,0.93-2,1.59
		c-0.54,0.66-0.94,1.43-1.22,2.31C344.54,582.65,344.41,583.56,344.41,584.51z"/>
	<path class="st1" d="M364.94,592.65v-15.06h-5.35v-1.28h12.21v1.28h-5.34v15.06H364.94z"/>
	<path class="st1" d="M388.54,584.46c0,1.23-0.18,2.37-0.54,3.41c-0.36,1.04-0.89,1.93-1.58,2.68c-0.69,0.75-1.53,1.33-2.52,1.74
		c-0.99,0.42-2.11,0.62-3.36,0.62c-1.23,0-2.33-0.2-3.3-0.6c-0.98-0.4-1.81-0.96-2.49-1.69c-0.68-0.73-1.2-1.62-1.57-2.65
		c-0.36-1.04-0.54-2.19-0.54-3.47c0-1.23,0.18-2.37,0.54-3.41c0.36-1.04,0.89-1.93,1.58-2.68c0.69-0.75,1.53-1.34,2.52-1.76
		c1-0.42,2.13-0.63,3.39-0.63c1.21,0,2.3,0.2,3.28,0.6c0.97,0.4,1.8,0.97,2.48,1.71c0.68,0.74,1.2,1.63,1.57,2.67
		C388.36,582.02,388.54,583.18,388.54,584.46z M374.18,584.51c0,0.99,0.14,1.92,0.41,2.79c0.27,0.86,0.68,1.62,1.22,2.26
		c0.54,0.64,1.2,1.14,2,1.52c0.79,0.37,1.71,0.56,2.75,0.56c1.05,0,1.98-0.18,2.78-0.55c0.8-0.37,1.46-0.87,1.99-1.52
		c0.53-0.65,0.93-1.41,1.2-2.29c0.27-0.88,0.4-1.84,0.4-2.87c0-0.99-0.13-1.93-0.39-2.79c-0.26-0.87-0.66-1.62-1.18-2.26
		c-0.53-0.64-1.19-1.14-1.98-1.51c-0.79-0.37-1.72-0.55-2.78-0.55c-1.05,0-1.97,0.2-2.77,0.6c-0.8,0.4-1.46,0.93-2,1.59
		c-0.54,0.66-0.94,1.43-1.22,2.31C374.32,582.65,374.18,583.56,374.18,584.51z"/>
	<path class="st1" d="M399.42,585.65v-1.28h5.6l-0.05,7.44c-0.84,0.4-1.72,0.69-2.66,0.85c-0.94,0.16-1.89,0.25-2.85,0.25
		c-1.33,0-2.5-0.2-3.52-0.58c-1.01-0.39-1.86-0.94-2.55-1.65c-0.69-0.71-1.2-1.56-1.55-2.55c-0.35-0.99-0.52-2.09-0.52-3.3
		c0-1.21,0.18-2.35,0.55-3.42c0.37-1.07,0.9-2,1.59-2.8c0.69-0.8,1.54-1.43,2.54-1.9c1-0.46,2.14-0.7,3.42-0.7
		c0.61,0,1.19,0.05,1.74,0.16c0.56,0.1,1.07,0.26,1.53,0.47c0.46,0.21,0.86,0.47,1.2,0.79c0.34,0.31,0.59,0.68,0.74,1.1l-0.63,0.79
		c-0.19-0.34-0.44-0.64-0.75-0.89c-0.31-0.25-0.67-0.46-1.08-0.62c-0.41-0.16-0.86-0.29-1.34-0.37c-0.49-0.08-1-0.12-1.54-0.12
		c-1.06,0-2,0.21-2.81,0.62c-0.81,0.41-1.48,0.96-2.03,1.64c-0.54,0.68-0.95,1.47-1.23,2.35c-0.28,0.89-0.42,1.8-0.42,2.74
		c0,1.04,0.14,1.99,0.42,2.84c0.28,0.86,0.71,1.59,1.27,2.21c0.57,0.61,1.28,1.09,2.13,1.42c0.85,0.34,1.85,0.51,3,0.51
		c0.73,0,1.42-0.06,2.08-0.17c0.66-0.11,1.27-0.3,1.84-0.57l0.02-5.24H399.42z"/>
	<path class="st1" d="M419.75,592.65l-1.71-4.67c-0.2-0.55-0.4-1-0.61-1.36c-0.2-0.36-0.44-0.65-0.72-0.87
		c-0.28-0.22-0.61-0.37-0.99-0.46c-0.38-0.09-0.85-0.14-1.41-0.14h-3.35v7.5h-1.46v-16.34h3.84c0.44,0,0.92,0.01,1.44,0.02
		c0.52,0.02,1.04,0.06,1.57,0.15c0.52,0.08,1.03,0.21,1.52,0.38c0.49,0.17,0.92,0.41,1.3,0.72c0.38,0.31,0.68,0.7,0.91,1.18
		c0.23,0.48,0.34,1.06,0.34,1.74c0,0.55-0.09,1.05-0.28,1.5c-0.19,0.45-0.45,0.85-0.8,1.19c-0.34,0.34-0.76,0.62-1.23,0.85
		c-0.48,0.23-1.01,0.39-1.59,0.49c-0.01,0.04-0.02,0.07-0.02,0.09c0,0.01,0,0.01,0,0.02c0,0,0,0.01,0,0.02
		c0.54,0.1,0.98,0.29,1.31,0.54c0.33,0.26,0.63,0.61,0.89,1.06c0.26,0.45,0.52,1.01,0.77,1.67c0.25,0.67,0.56,1.46,0.94,2.38
		l0.9,2.35H419.75z M411.02,583.86h3.29c0.54,0,1.09-0.05,1.63-0.14c0.54-0.09,1.03-0.26,1.46-0.5c0.44-0.24,0.79-0.56,1.06-0.97
		c0.27-0.41,0.41-0.93,0.41-1.55c0-0.63-0.11-1.14-0.34-1.54c-0.22-0.4-0.54-0.72-0.94-0.95c-0.4-0.23-0.87-0.39-1.42-0.48
		c-0.55-0.09-1.14-0.13-1.79-0.13h-3.38V583.86z"/>
	<path class="st1" d="M424.41,592.65h-1.56l6.83-16.34h1.69l6.77,16.34h-1.58l-2.01-4.78h-8.24L424.41,592.65z M426.71,586.81h7.46
		l-2.76-7.27l-0.89-2.48l-0.86,2.48L426.71,586.81z"/>
	<path class="st1" d="M442.34,592.65h-1.42v-16.34h3.68c0.63,0,1.24,0.03,1.85,0.09c0.6,0.06,1.17,0.15,1.71,0.29
		c0.54,0.14,1.03,0.32,1.48,0.56c0.45,0.23,0.83,0.53,1.16,0.88c0.32,0.35,0.58,0.78,0.76,1.27c0.18,0.49,0.27,1.06,0.27,1.71
		c0,0.85-0.18,1.57-0.54,2.17c-0.36,0.6-0.85,1.1-1.46,1.48c-0.61,0.39-1.32,0.67-2.13,0.85c-0.81,0.18-1.66,0.27-2.55,0.27h-2.76
		L442.34,592.65z M442.41,584.6h3.27c0.67,0,1.3-0.07,1.86-0.2c0.57-0.13,1.06-0.34,1.47-0.63c0.41-0.28,0.73-0.64,0.96-1.08
		c0.23-0.43,0.35-0.95,0.35-1.55c0-0.71-0.12-1.3-0.37-1.76c-0.25-0.46-0.61-0.82-1.07-1.09c-0.46-0.27-1.01-0.45-1.65-0.56
		c-0.64-0.1-1.35-0.16-2.11-0.16h-2.69V584.6z"/>
	<path class="st1" d="M456.65,592.65h-1.47v-16.34h1.52v7.29h9.74v-7.29h1.46v16.34h-1.5v-7.78h-9.74V592.65z"/>
	<path class="st1" d="M478.1,586.05v6.6h-1.49v-6.53l-5.96-9.81h1.62l5.12,8.59l5.2-8.59h1.55L478.1,586.05z"/>
</g>
<g>
	<path class="st1" d="M206.21,508.84c-4.06,0-7.21,1.53-9.44,4.58c-2.23,3.05-3.34,7.31-3.34,12.77c0,11.36,4.26,17.03,12.78,17.03
		c3.58,0,7.91-0.89,12.99-2.68v9.06c-4.18,1.74-8.85,2.61-14,2.61c-7.41,0-13.07-2.25-17-6.74c-3.92-4.49-5.89-10.94-5.89-19.35
		c0-5.3,0.96-9.93,2.89-13.92c1.93-3.98,4.7-7.04,8.31-9.16c3.61-2.12,7.84-3.19,12.7-3.19c4.95,0,9.92,1.2,14.91,3.59l-3.48,8.78
		c-1.9-0.9-3.82-1.69-5.75-2.37C209.96,509.17,208.06,508.84,206.21,508.84z"/>
	<path class="st1" d="M261.21,551.51l-3.69-12.12h-18.57l-3.69,12.12h-11.63l17.97-51.13h13.2l18.04,51.13H261.21z M254.94,530.33
		c-3.41-10.98-5.34-17.2-5.77-18.63c-0.43-1.44-0.74-2.58-0.92-3.41c-0.77,2.97-2.96,10.32-6.58,22.05H254.94z"/>
	<path class="st1" d="M300.81,551.51l-12.26-39.95h-0.31c0.44,8.13,0.66,13.55,0.66,16.27v23.69h-9.65v-50.93h14.7L306,539.53h0.21
		L319,500.58h14.7v50.93h-10.07v-24.1c0-1.14,0.02-2.45,0.05-3.94c0.03-1.49,0.19-5.43,0.47-11.84h-0.31l-13.13,39.88H300.81z"/>
	<path class="st1" d="M375.84,551.51h-29.33v-50.93h29.33v8.85h-18.53v11.18h17.24v8.85h-17.24v13.13h18.53V551.51z"/>
	<path class="st1" d="M397.27,531.97v19.54h-10.8v-50.93h14.84c6.92,0,12.04,1.26,15.36,3.78c3.32,2.52,4.98,6.35,4.98,11.48
		c0,3-0.83,5.66-2.47,7.99c-1.65,2.33-3.98,4.16-7,5.49c7.66,11.45,12.65,18.84,14.98,22.19h-11.98l-12.16-19.54H397.27z
		 M397.27,523.19h3.48c3.41,0,5.93-0.57,7.56-1.71c1.63-1.14,2.44-2.93,2.44-5.36c0-2.41-0.83-4.13-2.49-5.15
		c-1.66-1.02-4.23-1.53-7.71-1.53h-3.28V523.19z"/>
	<path class="st1" d="M464.74,551.51l-3.69-12.12h-18.57l-3.69,12.12h-11.63l17.97-51.13h13.2l18.04,51.13H464.74z M458.47,530.33
		c-3.41-10.98-5.34-17.2-5.77-18.63c-0.43-1.44-0.74-2.58-0.92-3.41c-0.77,2.97-2.96,10.32-6.58,22.05H458.47z"/>
	<path class="st1" d="M517.96,516.47c0,5.48-1.71,9.67-5.14,12.58c-3.43,2.9-8.3,4.35-14.61,4.35h-4.63v18.11h-10.8v-50.93h16.27
		c6.18,0,10.87,1.33,14.09,3.99C516.35,507.23,517.96,511.19,517.96,516.47z M493.58,524.55h3.55c3.32,0,5.8-0.66,7.45-1.97
		c1.65-1.31,2.47-3.22,2.47-5.73c0-2.53-0.69-4.4-2.07-5.61c-1.38-1.21-3.55-1.81-6.5-1.81h-4.91V524.55z"/>
	<path class="st1" d="M538.37,531.97v19.54h-10.8v-50.93h14.84c6.92,0,12.04,1.26,15.36,3.78c3.32,2.52,4.98,6.35,4.98,11.48
		c0,3-0.83,5.66-2.47,7.99c-1.65,2.33-3.98,4.16-7,5.49c7.66,11.45,12.65,18.84,14.98,22.19h-11.98l-12.16-19.54H538.37z
		 M538.37,523.19h3.48c3.41,0,5.93-0.57,7.56-1.71c1.63-1.14,2.44-2.93,2.44-5.36c0-2.41-0.83-4.13-2.49-5.15
		c-1.66-1.02-4.23-1.53-7.71-1.53h-3.28V523.19z"/>
	<path class="st1" d="M620.89,525.97c0,8.43-2.09,14.91-6.27,19.44c-4.18,4.53-10.17,6.79-17.97,6.79c-7.8,0-13.8-2.26-17.97-6.79
		c-4.18-4.53-6.27-11.03-6.27-19.51c0-8.48,2.1-14.95,6.29-19.42c4.19-4.47,10.2-6.7,18.03-6.7c7.83,0,13.81,2.25,17.96,6.76
		C618.82,511.04,620.89,517.52,620.89,525.97z M583.72,525.97c0,5.69,1.08,9.97,3.24,12.85c2.16,2.88,5.39,4.32,9.68,4.32
		c8.61,0,12.92-5.72,12.92-17.17c0-11.47-4.29-17.21-12.85-17.21c-4.3,0-7.54,1.44-9.72,4.34
		C584.82,516,583.72,520.29,583.72,525.97z"/>
</g>
<path class="st1" d="M377.2,290.68c-16.02,5.27-29.68,15.74-38.95,29.43h67.81L377.2,290.68z"/>
<path class="st1" d="M333.3,328.59c-5.11,10.17-8,21.65-8,33.81c0,5.03,0.5,9.93,1.44,14.68l48.09-48.49H333.3z"/>
<path class="st1" d="M434.98,295.09c-10.27-5.22-21.88-8.19-34.18-8.19c-4.63,0-9.16,0.44-13.57,1.24l47.75,49.28V295.09z"/>
<path class="st1" d="M472.91,339.99c-4.97-16.02-15.14-29.73-28.52-39.21v68.1L472.91,339.99z"/>
<path class="st1" d="M424.64,434.03c15.78-5.25,29.25-15.55,38.47-29.01h-67.75L424.64,434.03z"/>
<path class="st1" d="M366.89,429.85c10.2,5.14,21.71,8.05,33.9,8.05c3.88,0,7.69-0.29,11.41-0.86l-45.31-48.26V429.85z"/>
<path class="st1" d="M329.22,386.39c5.22,15.58,15.38,28.9,28.63,38.08v-67.15L329.22,386.39z"/>
<path class="st1" d="M468.04,396.73c5.27-10.3,8.26-21.96,8.26-34.33c0-4.16-0.35-8.23-1-12.2l-47.22,46.53H468.04z"/>
<path class="st1" d="M530,284.03v-25.2h-47.86v26.14H530v22.25v7.94v99.54h-45.45c9.74-15.42,15.41-33.66,15.41-53.21
	c0-55.11-44.83-99.94-99.94-99.94c-23.9,0-45.86,8.44-63.07,22.49h-94.36v0.76v22.43V414.7v22.21v0.98h74.36
	c-6.43-6.98-11.98-14.77-16.51-23.19h-34.51V307.22h50.22c-10.15,15.64-16.08,34.27-16.08,54.26c0,55.11,44.83,99.94,99.94,99.94
	c24.48,0,46.93-8.86,64.32-23.53h89.01v-0.98V414.7V307.22v-22.43v-0.76H530z M314.35,361.49c0-47.24,38.43-85.66,85.66-85.66
	c47.23,0,85.66,38.43,85.66,85.66c0,47.24-38.43,85.66-85.66,85.66C352.78,447.15,314.35,408.72,314.35,361.49z"/>
</svg>
